# xmcd
#
# Track frame offsets:
#	150
#	11315
#	24620
#	35522
#	46515
#	59325
#	70385
#	83512
#	96840
#	108542
#	117737
#	127970
#	138577
#	148577
#	160010
#	171330
#	181820
#	192542
#
# Disc length: 2704 seconds
#
# Revision: 3
# Processed by: cddbd v1.5.2PL0 Copyright (c) Steve Scherf et al.
# Submitted via: audiograbber 1.83.01
#
DISCID=f60a8e12
DTITLE=Various Artist - Spotlite On Class Records - Volume 1
DYEAR=1995
DGENRE=Oldies
TTITLE0=Bobby Day and The Satellites - Little Bitty Pretty One  
TTITLE1=Earl Nelson and The Pelicans - I Bow To You  
TTITLE2=Titans - No Time  
TTITLE3=Blenders - Little Rose 
TTITLE4=Satellites - You Ain't Sayin' Nothin' 
TTITLE5=Paul Clifton and Group - Mozel 
TTITLE6=Sputniks - My Love Is Gone 
TTITLE7=Eugene Church and The Fellows - Pretty Girls Everywhere 
TTITLE8=Richard Berry and The Pharaohs - Teenager's Love Song 
TTITLE9=Tangiers - Don't Try 
TTITLE10=Roulettes - Sad Fool 
TTITLE11=Bobby Day and The Satellites - Gotta New Girl
TTITLE12=Searchers   - Ooh Wee 
TTITLE13=Paul Clifton and Group - I Need You 
TTITLE14=Marquis - Strange Is Love 
TTITLE15=Earl Nelson and The Pelicans - Oh Gee, Oh Golly 
TTITLE16=Satellites - Heavenly Angel 
TTITLE17=Sputniks - Wait A Little Longer 
EXTD=
EXTT0=
EXTT1=
EXTT2=
EXTT3=
EXTT4=
EXTT5=
EXTT6=
EXTT7=
EXTT8=
EXTT9=
EXTT10=
EXTT11=
EXTT12=
EXTT13=
EXTT14=
EXTT15=
EXTT16=
EXTT17=
PLAYORDER=
